<?xml version="1.0" standalone="no"?>
<!DOCTYPE svg PUBLIC "-//W3C//DTD SVG 1.1//EN"
"http://www.w3.org/Graphics/SVG/1.1/DTD/svg11.dtd">
<svg height="600" version="1.1" width="900" xmlns="http://www.w3.org/2000/svg"><g><rect fill="#f9f9f9" height="600" width="900" x="0" y="0" /><g transform="translate(45 45)"><g transform="translate(32 0)"><g transform="translate(0 0)"><g transform="translate(0 0)"><rect fill="#e41a1c" height="10" width="10" x="0" y="-10" /><text fill="#666" font-family="Monaco" font-size="14" x="14" y="0">current odds</text></g><g transform="translate(142 0)"><rect fill="#377eb8" height="10" width="10" x="0" y="-10" /><text fill="#666" font-family="Monaco" font-size="14" x="14" y="0">3 month odds</text></g><g transform="translate(284 0)"><rect fill="#4daf4a" height="10" width="10" x="0" y="-10" /><text fill="#666" font-family="Monaco" font-size="14" x="14" y="0">6 month odds</text></g><g transform="translate(426 0)"><rect fill="#984ea3" height="10" width="10" x="0" y="-10" /><text fill="#666" font-family="Monaco" font-size="14" x="14" y="0">12 month odds</text></g><g transform="translate(576 0)"><rect fill="#ff7f00" height="10" width="10" x="0" y="-10" /><text fill="#666" font-family="Monaco" font-size="14" x="14" y="0">24 month odds</text></g></g></g><g transform="translate(0 18)"><g transform="translate(32 0)"><g class="axis bottom"><g class="tick"><line stroke="#eee" stroke-width="1" x1="0.0" x2="0.0" y1="0" y2="474.0" /><text dy="1em" fill="#9c9c9c" font-family="Monaco" text-anchor="middle" x="0.0" y="478.0">2016-10</text></g><g class="tick"><line stroke="#eee" stroke-width="1" x1="155.145361577794" x2="155.145361577794" y1="0" y2="474.0" /><text dy="1em" fill="#9c9c9c" font-family="Monaco" text-anchor="middle" x="155.145361577794" y="478.0">2017-07</text></g><g class="tick"><line stroke="#eee" stroke-width="1" x1="310.85902118334553" x2="310.85902118334553" y1="0" y2="474.0" /><text dy="1em" fill="#9c9c9c" font-family="Monaco" text-anchor="middle" x="310.85902118334553" y="478.0">2018-04</text></g><g class="tick"><line stroke="#eee" stroke-width="1" x1="467.1409788166545" x2="467.1409788166545" y1="0" y2="474.0" /><text dy="1em" fill="#9c9c9c" font-family="Monaco" text-anchor="middle" x="467.1409788166545" y="478.0">2019-01</text></g><g class="tick"><line stroke="#eee" stroke-width="1" x1="622.2863403944485" x2="622.2863403944485" y1="0" y2="474.0" /><text dy="1em" fill="#9c9c9c" font-family="Monaco" text-anchor="middle" x="622.2863403944485" y="478.0">2019-10</text></g><g class="tick"><line stroke="#eee" stroke-width="1" x1="778.0" x2="778.0" y1="0" y2="474.0" /><text dy="1em" fill="#9c9c9c" font-family="Monaco" text-anchor="middle" x="778.0" y="478.0">2020-07</text></g></g><g class="axis left"><g class="tick"><line stroke="#eee" stroke-width="1" x1="-4" x2="778.0" y1="352.50" y2="352.50" /><text dy="0.32em" fill="#9c9c9c" font-family="Monaco" text-anchor="end" x="-8" y="352.50">0.1</text></g><g class="tick"><line stroke="#eee" stroke-width="1" x1="-4" x2="778.0" y1="235.0" y2="235.0" /><text dy="0.32em" fill="#9c9c9c" font-family="Monaco" text-anchor="end" x="-8" y="235.0">0.2</text></g><g class="tick"><line stroke="#eee" stroke-width="1" x1="-4" x2="778.0" y1="117.50" y2="117.50" /><text dy="0.32em" fill="#9c9c9c" font-family="Monaco" text-anchor="end" x="-8" y="117.50">0.3</text></g><g class="tick"><line stroke="#eee" stroke-width="1" x1="-4" x2="778.0" y1="0" y2="0" /><text dy="0.32em" fill="#9c9c9c" font-family="Monaco" text-anchor="end" x="-8" y="0">0.4</text></g><g class="tick"><line stroke="#a8a8a8" stroke-width="1" x1="-4" x2="778.0" y1="470" y2="470" /><text dy="0.32em" fill="#9c9c9c" font-family="Monaco" text-anchor="end" x="-8" y="470">0</text></g></g><g><g class="series lines"><path d="M 69.90065741417094 446.4999999999999995108079798 L 85.81300219138056 458.2499999999999997554039899 L 103.43024105186268 458.2499999999999997554039899 L 120.4791818845873 458.2499999999999997554039899 L 138.0964207450694 458.2499999999999997554039899 L 155.145361577794 458.2499999999999997554039899 L 172.7626004382761 446.4999999999999995108079798 L 190.3798392987582 458.2499999999999997554039899 L 207.42878013148282 458.2499999999999997554039899 L 225.04601899196496 458.2499999999999997554039899 L 242.09495982468954 458.2499999999999997554039899 L 259.7121986851717 446.4999999999999995108079798 L 277.3294375456538 446.4999999999999995108079798 L 293.2417823228634 446.4999999999999995108079798 L 310.85902118334553 458.2499999999999997554039899 L 327.90796201607014 458.2499999999999997554039899 L 345.5252008765522 458.2499999999999997554039899 L 362.5741417092769 446.4999999999999995108079798 L 380.19138056975896 446.4999999999999995108079798 L 397.8086194302411 458.2499999999999997554039899 L 414.85756026296565 458.2499999999999997554039899 L 432.47479912344784 458.2499999999999997554039899 L 449.52373995617234 446.4999999999999995108079798 L 467.1409788166545 446.4999999999999995108079798 L 484.7582176771366 446.4999999999999995108079798 L 500.6705624543462 446.4999999999999995108079798 L 518.2878013148284 446.4999999999999995108079798 L 535.336742147553 458.2499999999999997554039899 L 552.953981008035 458.2499999999999997554039899 L 570.0029218407597 446.4999999999999995108079798 L 587.6201607012417 446.4999999999999995108079798 L 605.2373995617239 446.4999999999999995108079798 L 622.2863403944485 458.2499999999999997554039899 L 639.9035792549306 458.2499999999999997554039899 L 656.9525200876552 446.4999999999999995108079798 L 674.5697589481373 446.4999999999999995108079798" fill="none" stroke="#e41a1c" stroke-width="2" /></g><g class="series lines"><path d="M 69.90065741417094 411.2499999999999967387198652 L 85.81300219138056 446.4999999999999995108079798 L 103.43024105186268 446.4999999999999995108079798 L 120.4791818845873 446.4999999999999995108079798 L 138.0964207450694 446.4999999999999995108079798 L 155.145361577794 446.4999999999999995108079798 L 172.7626004382761 411.2499999999999967387198652 L 190.3798392987582 446.4999999999999995108079798 L 207.42878013148282 446.4999999999999995108079798 L 225.04601899196496 446.4999999999999995108079798 L 242.09495982468954 446.4999999999999995108079798 L 259.7121986851717 411.2499999999999967387198652 L 277.3294375456538 411.2499999999999967387198652 L 293.2417823228634 411.2499999999999967387198652 L 310.85902118334553 446.4999999999999995108079798 L 327.90796201607014 446.4999999999999995108079798 L 345.5252008765522 446.4999999999999995108079798 L 362.5741417092769 411.2499999999999967387198652 L 380.19138056975896 411.2499999999999967387198652 L 397.8086194302411 446.4999999999999995108079798 L 414.85756026296565 446.4999999999999995108079798 L 432.47479912344784 446.4999999999999995108079798 L 449.52373995617234 411.2499999999999967387198652 L 467.1409788166545 317.2499999999999947819517843 L 484.7582176771366 317.2499999999999947819517843 L 500.6705624543462 317.2499999999999947819517843 L 518.2878013148284 411.2499999999999967387198652 L 535.336742147553 446.4999999999999995108079798 L 552.953981008035 446.4999999999999995108079798 L 570.0029218407597 411.2499999999999967387198652 L 587.6201607012417 411.2499999999999967387198652 L 605.2373995617239 411.2499999999999967387198652 L 622.2863403944485 446.4999999999999995108079798 L 639.9035792549306 446.4999999999999995108079798 L 656.9525200876552 411.2499999999999967387198652 L 674.5697589481373 411.2499999999999967387198652" fill="none" stroke="#377eb8" stroke-width="2" /></g><g class="series lines"><path d="M 69.90065741417094 375.9999999999999980432319191 L 85.81300219138056 411.2499999999999967387198652 L 103.43024105186268 411.2499999999999967387198652 L 120.4791818845873 411.2499999999999967387198652 L 138.0964207450694 411.2499999999999967387198652 L 155.145361577794 411.2499999999999967387198652 L 172.7626004382761 375.9999999999999980432319191 L 190.3798392987582 411.2499999999999967387198652 L 207.42878013148282 411.2499999999999967387198652 L 225.04601899196496 411.2499999999999967387198652 L 242.09495982468954 411.2499999999999967387198652 L 259.7121986851717 375.9999999999999980432319191 L 277.3294375456538 375.9999999999999980432319191 L 293.2417823228634 375.9999999999999980432319191 L 310.85902118334553 411.2499999999999967387198652 L 327.90796201607014 411.2499999999999967387198652 L 345.5252008765522 411.2499999999999967387198652 L 362.5741417092769 375.9999999999999980432319191 L 380.19138056975896 375.9999999999999980432319191 L 397.8086194302411 411.2499999999999967387198652 L 414.85756026296565 411.2499999999999967387198652 L 432.47479912344784 411.2499999999999967387198652 L 449.52373995617234 375.9999999999999980432319191 L 467.1409788166545 199.7499999999999882593915146 L 484.7582176771366 199.7499999999999882593915146 L 500.6705624543462 199.7499999999999882593915146 L 518.2878013148284 375.9999999999999980432319191 L 535.336742147553 411.2499999999999967387198652 L 552.953981008035 411.2499999999999967387198652 L 570.0029218407597 375.9999999999999980432319191 L 587.6201607012417 375.9999999999999980432319191 L 605.2373995617239 375.9999999999999980432319191 L 622.2863403944485 411.2499999999999967387198652 L 639.9035792549306 411.2499999999999967387198652 L 656.9525200876552 375.9999999999999980432319191 L 674.5697589481373 375.9999999999999980432319191" fill="none" stroke="#4daf4a" stroke-width="2" /></g><g class="series lines"><path d="M 69.90065741417094 234.9999999999999869548794606 L 85.81300219138056 352.4999999999999934774397303 L 103.43024105186268 352.4999999999999934774397303 L 120.4791818845873 352.4999999999999934774397303 L 138.0964207450694 352.4999999999999934774397303 L 155.145361577794 352.4999999999999934774397303 L 172.7626004382761 234.9999999999999869548794606 L 190.3798392987582 352.4999999999999934774397303 L 207.42878013148282 352.4999999999999934774397303 L 225.04601899196496 352.4999999999999934774397303 L 242.09495982468954 352.4999999999999934774397303 L 259.7121986851717 234.9999999999999869548794606 L 277.3294375456538 234.9999999999999869548794606 L 293.2417823228634 234.9999999999999869548794606 L 310.85902118334553 352.4999999999999934774397303 L 327.90796201607014 352.4999999999999934774397303 L 345.5252008765522 352.4999999999999934774397303 L 362.5741417092769 234.9999999999999869548794606 L 380.19138056975896 234.9999999999999869548794606 L 397.8086194302411 352.4999999999999934774397303 L 414.85756026296565 352.4999999999999934774397303 L 432.47479912344784 352.4999999999999934774397303 L 449.52373995617234 234.9999999999999869548794606 L 467.1409788166545 82.2499999999999817368312449 L 484.7582176771366 82.2499999999999817368312449 L 500.6705624543462 82.2499999999999817368312449 L 518.2878013148284 234.9999999999999869548794606 L 535.336742147553 352.4999999999999934774397303 L 552.953981008035 352.4999999999999934774397303 L 570.0029218407597 234.9999999999999869548794606 L 587.6201607012417 234.9999999999999869548794606 L 605.2373995617239 234.9999999999999869548794606 L 622.2863403944485 352.4999999999999934774397303 L 639.9035792549306 352.4999999999999934774397303 L 656.9525200876552 234.9999999999999869548794606 L 674.5697589481373 234.9999999999999869548794606" fill="none" stroke="#984ea3" stroke-width="2" /></g><g class="series lines"><path d="M 69.90065741417094 11.7499999999999843458553528 L 85.81300219138056 176.250 L 103.43024105186268 176.250 L 120.4791818845873 176.250 L 138.0964207450694 176.250 L 155.145361577794 176.250 L 172.7626004382761 11.7499999999999843458553528 L 190.3798392987582 176.250 L 207.42878013148282 176.250 L 225.04601899196496 176.250 L 242.09495982468954 176.250 L 259.7121986851717 11.7499999999999843458553528 L 277.3294375456538 11.7499999999999843458553528 L 293.2417823228634 11.7499999999999843458553528 L 310.85902118334553 176.250 L 327.90796201607014 176.250 L 345.5252008765522 176.250 L 362.5741417092769 11.7499999999999843458553528 L 380.19138056975896 11.7499999999999843458553528 L 397.8086194302411 176.250 L 414.85756026296565 176.250 L 432.47479912344784 176.250 L 449.52373995617234 11.7499999999999843458553528 L 467.1409788166545 11.7499999999999843458553528 L 484.7582176771366 11.7499999999999843458553528 L 500.6705624543462 11.7499999999999843458553528 L 518.2878013148284 11.7499999999999843458553528 L 535.336742147553 176.250 L 552.953981008035 176.250 L 570.0029218407597 11.7499999999999843458553528 L 587.6201607012417 11.7499999999999843458553528 L 605.2373995617239 11.7499999999999843458553528 L 622.2863403944485 176.250 L 639.9035792549306 176.250 L 656.9525200876552 11.7499999999999843458553528 L 674.5697589481373 11.7499999999999843458553528" fill="none" stroke="#ff7f00" stroke-width="2" /></g></g></g></g></g></g></svg>